<?xml version="1.0" encoding="iso-8859-1"?>
<!-- Generator: Adobe Illustrator 19.0.0, SVG Export Plug-In . SVG Version: 6.00 Build 0)  -->
<svg version="1.1" id="Layer_1" xmlns="http://www.w3.org/2000/svg" xmlns:xlink="http://www.w3.org/1999/xlink" x="0px" y="0px"
	 viewBox="0 0 512 512" style="enable-background:new 0 0 512 512;" xml:space="preserve">
<path style="fill:#F7B239;" d="M376.31,59.134c-10.104-13.086-22.295-24.478-36.097-33.688
	c-23.56-15.711-51.76-25.027-82.108-25.433c-30.705-0.418-59.466,8.422-83.622,23.894c-13.957,8.935-26.375,20.088-36.753,32.948
	c-20.983,26.017-33.616,59.025-33.664,94.884c-0.024,22.478,4.83,43.814,13.575,63.01v0.001c0.005,0.011,0.01,0.021,0.016,0.032
	c0.007,0.016,0.014,0.032,0.021,0.049l-0.016-0.035c9.543,20.992,23.74,39.415,41.259,53.991c0.093,0.076,0.183,0.157,0.276,0.235
	c1.18,0.977,2.375,1.937,3.585,2.878c20.255,15.758,34.356,38.018,40.356,62.83c0.39,1.615,0.734,3.242,1.057,4.874
	c0.161,0.816,0.327,1.632,0.47,2.45l0.008,0.039l0.004,0.02h51.331h51.319l0,0v-0.012c0.143-0.83,0.315-1.652,0.478-2.475
	c0.379-1.923,0.791-3.836,1.275-5.732c0.359-1.426,0.753-2.839,1.165-4.246c0.16-0.543,0.335-1.08,0.502-1.619
	c0.27-0.87,0.544-1.739,0.834-2.603c0.2-0.596,0.413-1.188,0.623-1.78c0.29-0.816,0.587-1.628,0.895-2.436
	c0.221-0.579,0.445-1.155,0.674-1.729c0.338-0.843,0.688-1.681,1.045-2.516c0.221-0.517,0.439-1.033,0.668-1.546
	c0.431-0.966,0.88-1.924,1.338-2.877c0.178-0.37,0.346-0.744,0.527-1.112c0.657-1.332,1.337-2.654,2.045-3.959
	c0.074-0.136,0.154-0.268,0.228-0.403c7.506-13.708,17.796-25.875,30.3-35.718c18.991-14.959,34.32-34.344,44.448-56.603
	c8.708-19.134,13.563-40.416,13.563-62.818c0-0.06,0-0.131,0-0.191C407.886,116.871,396.1,84.758,376.31,59.134z M139.654,209.167
	c-2.061,0.089-4.118,0.292-6.161,0.608c-1.362,0.212-2.717,0.474-4.064,0.787c1.347-0.313,2.702-0.575,4.064-0.787
	C135.535,209.459,137.592,209.257,139.654,209.167c1.374-0.058,2.75-0.068,4.124-0.025
	C142.403,209.099,141.027,209.109,139.654,209.167z"/>
<g>
	
		<rect x="343.938" y="195.508" transform="matrix(-0.9557 -0.2943 0.2943 -0.9557 595.8719 730.2853)" style="fill:#2BA5F7;" width="17.893" height="249.6"/>
	
		<rect x="34.324" y="311.356" transform="matrix(-0.2943 -0.9557 0.9557 -0.2943 -100.1631 566.6456)" style="fill:#2BA5F7;" width="249.6" height="17.893"/>
	<path style="fill:#2BA5F7;" d="M340.213,25.447c-20.924,21.174-49.983,63.471-82.108,63.471c-32.9,0-62.592-42.941-83.622-65.01
		C198.639,8.436,227.4-0.403,258.105,0.014C288.453,0.42,316.653,9.736,340.213,25.447z"/>
</g>
<path style="fill:#F95428;" d="M340.213,25.447c13.802,9.209,25.993,20.601,36.097,33.688
	c-29.954,30.813-71.849,49.959-118.205,49.959c-47.501,0-90.303-20.088-120.376-52.237c10.378-12.859,22.796-24.013,36.753-32.948
	c21.031,22.069,50.722,35.835,83.623,35.835C290.23,59.743,319.289,46.621,340.213,25.447z"/>
<g>
	<path style="fill:#E54728;" d="M137.73,56.856c10.378-12.859,22.796-24.013,36.753-32.948c7.515,7.885,16.128,14.708,25.612,20.22
		c-2.123,4.02-4.139,8.267-6.024,12.728c-4.378,10.39-8.064,21.878-10.915,34.236C166.073,82.36,150.72,70.729,137.73,56.856z"/>
	<path style="fill:#E54728;" d="M184.885,220.057c-1.67,1.241-3.28,2.589-4.831,4.032h-0.012l-0.012-0.012
		c-17.261-16.092-42.169-19.206-62.389-9.329c-8.744-19.194-13.599-40.535-13.575-63.009h72.385
		c-0.012,22.51,2.529,43.875,7.122,63.093C183.99,216.598,184.432,218.339,184.885,220.057z"/>
</g>
<path style="fill:#E09B2D;" d="M183.155,91.092c-4.294,18.585-6.692,39.103-6.704,60.647h-72.385
	c0.048-35.859,12.681-68.866,33.664-94.884C150.72,70.729,166.073,82.36,183.155,91.092z"/>
<path style="fill:#2197D8;" d="M256.006,0.002c-15.675,0-30.324,8.78-42.694,23.906c-4.772,5.833-9.197,12.621-13.217,20.22
	c-9.484-5.511-18.096-12.335-25.612-20.22C198.079,8.782,226.088,0.002,256.006,0.002z"/>
<path style="fill:#E09B2D;" d="M315.365,303.727c-22.648,0-42.902-4.049-59.588-9.258c-34.636-10.814-61.417-38.735-70.731-73.804
	c-0.054-0.203-0.107-0.406-0.161-0.608c-1.67,1.241-3.28,2.589-4.831,4.032h-0.012l-0.012-0.012
	c-17.261-16.092-42.169-19.206-62.389-9.329c0,0.001,0,0.001-0.001,0.002c9.543,21.011,23.748,39.449,41.28,54.036
	c0.093,0.076,0.183,0.157,0.276,0.235c1.18,0.977,2.375,1.937,3.585,2.878c20.255,15.758,34.356,38.018,40.356,62.83
	c0.585,2.422,1.097,4.867,1.527,7.324l0.012,0.06h24.455h78.195v-0.012c0.477-2.768,1.062-5.499,1.754-8.207
	c2.66-10.533,6.8-20.578,12.251-29.846C319.492,303.835,317.5,303.727,315.365,303.727z"/>
<g>
	<rect x="247.062" y="215.14" style="fill:#2BA5F7;" width="17.894" height="233.403"/>
	
		<rect x="300.53" y="212.834" transform="matrix(-0.9789 -0.2043 0.2043 -0.9789 544.6282 719.9366)" style="fill:#2BA5F7;" width="17.893" height="238.042"/>
	
		<rect x="83.523" y="322.891" transform="matrix(-0.2042 -0.9789 0.9789 -0.2042 -80.9432 597.8752)" style="fill:#2BA5F7;" width="238.037" height="17.893"/>
</g>
<path style="fill:#F95428;" d="M407.934,151.74c0,0.06,0,0.131,0,0.191c0,22.403-4.855,43.684-13.563,62.818
	c-20.208-9.865-45.139-6.752-62.389,9.34h-0.012c-21.389-19.969-54.563-19.969-75.952,0h-0.012
	c-21.389-19.969-54.563-19.969-75.952,0h-0.012l-0.012-0.012c-17.261-16.092-42.169-19.206-62.389-9.329l0.036,0.084
	c-8.768-19.218-13.635-40.583-13.611-63.093C104.066,151.74,407.934,151.74,407.934,151.74z"/>
<path style="fill:#F7B239;" d="M332.916,442.202l-10.535,61.572c-0.804,4.76-4.931,8.226-9.744,8.226H200.042
	c-4.812,0-8.94-3.468-9.744-8.214l-10.548-61.572c-0.501-2.875,0.303-5.814,2.189-8.043c1.873-2.228,4.64-3.52,7.555-3.52h133.678
	c2.914,0,5.683,1.292,7.555,3.507C332.613,436.388,333.417,439.34,332.916,442.202z"/>
<path style="fill:#E09B2D;" d="M235.772,512h-35.73c-4.812,0-8.94-3.468-9.744-8.214l-10.548-61.572
	c-0.501-2.875,0.303-5.814,2.189-8.043c1.873-2.228,4.64-3.52,7.555-3.52h39.396L235.772,512z"/>
<g>
</g>
<g>
</g>
<g>
</g>
<g>
</g>
<g>
</g>
<g>
</g>
<g>
</g>
<g>
</g>
<g>
</g>
<g>
</g>
<g>
</g>
<g>
</g>
<g>
</g>
<g>
</g>
<g>
</g>
</svg>
