<?xml version="1.0" encoding="utf-8"?>
<!-- Generator: Adobe Illustrator 20.1.0, SVG Export Plug-In . SVG Version: 6.00 Build 0)  -->
<svg version="1.1" id="Layer_1" xmlns="http://www.w3.org/2000/svg" xmlns:xlink="http://www.w3.org/1999/xlink" x="0px" y="0px"
	 viewBox="0 0 64 38" style="enable-background:new 0 0 64 38;" xml:space="preserve">
<style type="text/css">
	.st0{fill:#FF9900;}
	.st1{fill:#CC0000;}
	.st2{fill:#FCB340;}
	.st3{fill:#000066;}
	.st4{fill:#FFFFFF;}
</style>
<g id="layer1">
	<g id="g10305">
		<path id="path2268" class="st0" d="M50.3,18.8c0,5.9-4.8,10.6-10.6,10.6c-5.9,0-10.6-4.8-10.6-10.6l0,0c0-5.9,4.8-10.6,10.6-10.6
			C45.6,8.2,50.3,12.9,50.3,18.8L50.3,18.8z"/>
		<path id="path1350" class="st1" d="M25.4,8.2c-5.8,0-10.6,4.8-10.6,10.6c0,5.9,4.8,10.6,10.6,10.6c2.8,0,5.3-1,7.2-2.8l0,0l0,0
			c0.4-0.4,0.7-0.7,1.1-1.1h-2.2c-0.3-0.4-0.6-0.7-0.8-1.1h3.8c0.2-0.4,0.4-0.7,0.6-1.1h-5c-0.2-0.4-0.3-0.7-0.4-1.1h5.9
			c0.4-1.1,0.5-2.2,0.5-3.4c0-0.8-0.1-1.5-0.2-2.3h-6.5c0.1-0.4,0.2-0.8,0.3-1.1h5.9c-0.1-0.4-0.3-0.8-0.5-1.1h-5
			c0.2-0.4,0.4-0.8,0.6-1.1h3.8c-0.2-0.4-0.5-0.8-0.8-1.1h-2.1c0.3-0.4,0.7-0.7,1.1-1.1C30.7,9.2,28.2,8.2,25.4,8.2L25.4,8.2z"/>
		<path id="use9412" class="st2" d="M49.3,24.4c0.1,0,0.1,0,0.2,0s0.1,0.1,0.1,0.1c0,0.1,0,0.1,0,0.2s0,0.1,0,0.2S49.5,25,49.5,25
			c-0.1,0-0.1,0-0.2,0s-0.1,0-0.2,0C49,25,49,24.9,49,24.9c0-0.1,0-0.1,0-0.2s0-0.1,0-0.2s0.1-0.1,0.1-0.1
			C49.1,24.4,49.2,24.4,49.3,24.4 M49.3,24.4L49.3,24.4l-0.2,0.1v0.1v0.1l0.1,0.1h0.1h0.1l0.1-0.1v-0.1v-0.1L49.3,24.4L49.3,24.4
			 M49.1,24.9v-0.4h0.1h0.1l0,0c0,0,0,0,0,0.1v0.1c0,0,0,0-0.1,0l0,0c0,0,0,0,0.1,0.1v0.1L49.1,24.9L49.1,24.9
			c0.1-0.1,0.1-0.2,0-0.2l0,0l0,0V24.9L49.1,24.9 M49.2,24.7L49.2,24.7C49.3,24.7,49.3,24.7,49.2,24.7L49.2,24.7L49.2,24.7
			L49.2,24.7C49.3,24.7,49.3,24.7,49.2,24.7L49.2,24.7L49.2,24.7"/>
	</g>
	<g id="g16480">
		<g id="g13802" transform="translate(-13.74405,15.9939)">
			<path id="path13804" class="st3" d="M42.7,5.8l0.1-1c-0.1,0-0.2,0-0.3,0c-0.4,0-0.4-0.2-0.4-0.4l0.4-1.9h0.6l0.1-1.1h-0.6
				l0.1-0.7h-1.2c0,0-0.7,3.7-0.7,4.2c0,0.7,0.4,1,0.9,1C42.3,6,42.6,5.9,42.7,5.8z"/>
			<path id="path13806" class="st3" d="M43.1,4c0,1.6,1.1,2,2,2c0.8,0,1.3-0.2,1.3-0.2l0.2-1.1c0,0-0.7,0.3-1.3,0.3
				c-1.2,0-1-0.9-1-0.9h2.3c0,0,0.1-0.7,0.1-1c0-0.7-0.4-1.7-1.6-1.7C43.9,1.4,43.1,2.6,43.1,4z M45,2.4c0.6,0,0.5,0.7,0.5,0.8h-1.3
				C44.3,3.1,44.4,2.4,45,2.4z"/>
			<path id="path13808" class="st3" d="M52.2,5.8l0.2-1.2c0,0-0.6,0.3-0.9,0.3c-0.8,0-1.1-0.6-1.1-1.3c0-1.3,0.7-2.1,1.5-2.1
				c0.6,0,1,0.3,1,0.3L53,0.7c0,0-0.5-0.4-1.1-0.4c-1.8,0-2.8,1.2-2.8,3.4C49.1,5,49.9,6,51.2,6C51.6,6,52.2,5.8,52.2,5.8z"/>
			<path id="path13810" class="st3" d="M36.5,1.4c-0.8,0-1.4,0.2-1.4,0.2l-0.2,1c0,0,0.5-0.2,1.2-0.2c0.4,0,0.7,0,0.7,0.4
				c0,0.2,0,0.3,0,0.3s-0.3,0-0.5,0c-1.1,0-2,0.4-2,1.7c0,1,0.7,1.2,1.1,1.2c0.8,0,1.1-0.5,1.1-0.5v0.4h1L38,2.8
				C38,1.5,36.9,1.4,36.5,1.4z M36.6,4c0,0.2,0,1.1-0.7,1.1c-0.4,0-0.4-0.3-0.4-0.4c0-0.3,0.2-0.7,1-0.7C36.7,3.9,36.6,3.9,36.6,4z"
				/>
			<path id="path13812" class="st3" d="M39.1,6c0.3,0,1.7,0.1,1.7-1.4c0-1.4-1.3-1.1-1.3-1.7c0-0.3,0.2-0.4,0.6-0.4
				c0.2,0,0.8,0.1,0.8,0.1l0.1-1c0,0-0.4-0.1-1-0.1c-0.8,0-1.7,0.3-1.7,1.5c0,1.3,1.4,1.2,1.4,1.7C39.7,5,39.3,5,39,5
				c-0.5,0-1-0.2-1-0.2l-0.2,1C37.8,5.8,38.1,6,39.1,6z"/>
			<path id="path13814" class="st3" d="M61.5,0.5L61.3,2c0,0-0.4-0.6-1.1-0.6c-1.3,0-1.9,1.3-1.9,2.7c0,0.9,0.5,1.8,1.4,1.8
				c0.7,0,1.1-0.5,1.1-0.5v0.4h1.1l0.9-5.4L61.5,0.5z M61.1,3.5c0,0.6-0.3,1.4-0.9,1.4c-0.4,0-0.6-0.3-0.6-0.9
				c0-0.9,0.4-1.5,0.9-1.5C60.9,2.5,61.1,2.8,61.1,3.5z"/>
			<path id="path13816" class="st3" d="M30.3,5.9L31,1.8l0.1,4.1h0.8l1.5-4.1l-0.6,4.1H34l0.9-5.4h-1.8L32,3.8V0.5h-1.7l-0.9,5.4
				L30.3,5.9L30.3,5.9z"/>
			<path id="path13818" class="st3" d="M47.8,5.9c0.3-1.9,0.4-3.4,1.4-3c0.1-0.7,0.5-1.4,0.6-1.7c0,0,0-0.1-0.3-0.1
				c-0.5,0-1.2,1-1.2,1l0.1-0.6h-1.1l-0.7,4.4H47.8L47.8,5.9z"/>
			<g id="use14699" transform="translate(845.3001,0)">
				<path id="path13810_1_" class="st3" d="M-790.7,1.4c-0.8,0-1.4,0.2-1.4,0.2l-0.2,1c0,0,0.5-0.2,1.2-0.2c0.4,0,0.7,0,0.7,0.4
					c0,0.2,0,0.3,0,0.3s-0.3,0-0.5,0c-1.1,0-2,0.4-2,1.7c0,1,0.7,1.2,1.1,1.2c0.8,0,1.1-0.5,1.1-0.5v0.4h1l0.4-3.1
					C-789.2,1.5-790.3,1.4-790.7,1.4z M-790.5,4c0,0.2,0,1.1-0.7,1.1c-0.4,0-0.4-0.3-0.4-0.4c0-0.3,0.2-0.7,1-0.7
					C-790.5,3.9-790.6,3.9-790.5,4z"/>
			</g>
			<path id="use14701" class="st3" d="M57.3,5.9c0.2-1.4,0.5-3.3,1.4-3c0.1-0.7,0-0.7-0.3-0.7c-0.5,0-0.6,0-0.6,0l0.1-0.6h-1.1
				L56.1,6L57.3,5.9L57.3,5.9z"/>
		</g>
		<g id="g10289">
			<path id="path4157" class="st4" d="M29.2,21.5l0.1-1c-0.1,0-0.2,0-0.3,0c-0.4,0-0.4-0.2-0.4-0.4l0.3-2h0.6l0.1-1.1H29l0.1-0.7H28
				c0,0-0.7,3.7-0.7,4.2c0,0.7,0.4,1,0.9,1C28.8,21.6,29.1,21.5,29.2,21.5z"/>
			<path id="path4155" class="st4" d="M29.6,19.7c0,1.6,1.1,2,2,2c0.8,0,1.2-0.2,1.2-0.2l0.2-1.1c0,0-0.6,0.3-1.2,0.3
				c-1.2,0-1-0.9-1-0.9h2.3c0,0,0.1-0.7,0.1-1c0-0.7-0.4-1.7-1.6-1.7C30.5,17.1,29.6,18.3,29.6,19.7z M31.6,18.1
				c0.6,0,0.5,0.7,0.5,0.8h-1.3C30.9,18.8,31,18.1,31.6,18.1z"/>
			<path id="path4151" class="st4" d="M38.8,21.5l0.2-1.2c0,0-0.6,0.3-0.9,0.3c-0.8,0-1.1-0.6-1.1-1.3c0-1.3,0.7-2.1,1.5-2.1
				c0.6,0,1,0.3,1,0.3l0.2-1.2c0,0-0.7-0.3-1.3-0.3c-1.3,0-2.6,1.1-2.6,3.3c0,1.4,0.7,2.3,2,2.3C38.2,21.7,38.8,21.5,38.8,21.5z"/>
			<path id="path4149" class="st4" d="M23,17.1c-0.8,0-1.4,0.2-1.4,0.2l-0.2,1c0,0,0.5-0.2,1.2-0.2c0.4,0,0.7,0,0.7,0.4
				c0,0.2,0,0.3,0,0.3s-0.3,0-0.5,0c-1,0-2,0.4-2,1.7c0,1,0.7,1.2,1.1,1.2c0.8,0,1.1-0.5,1.2-0.5v0.4h1l0.4-3.1
				C24.6,17.1,23.4,17.1,23,17.1z M23.3,19.6c0,0.2-0.1,1.1-0.8,1.1c-0.4,0-0.4-0.3-0.4-0.4c0-0.3,0.2-0.7,1-0.7
				C23.2,19.6,23.2,19.6,23.3,19.6z"/>
			<path id="path4145" class="st4" d="M25.6,21.6c0.3,0,1.7,0.1,1.7-1.4c0-1.4-1.3-1.1-1.3-1.7c0-0.3,0.2-0.4,0.6-0.4
				c0.2,0,0.8,0.1,0.8,0.1l0.1-1c0,0-0.4-0.1-1-0.1c-0.8,0-1.7,0.3-1.7,1.5c0,1.3,1.4,1.2,1.4,1.7c0,0.4-0.4,0.4-0.7,0.4
				c-0.5,0-1-0.2-1-0.2l-0.2,1C24.4,21.5,24.7,21.6,25.6,21.6z"/>
			<path id="path4139" class="st4" d="M48.1,16.2l-0.2,1.5c0,0-0.4-0.6-1.1-0.6c-1,0-1.9,1.3-1.9,2.7c0,0.9,0.5,1.8,1.4,1.8
				c0.7,0,1.1-0.5,1.1-0.5v0.4h1.1l0.9-5.4L48.1,16.2z M47.6,19.1c0,0.6-0.3,1.4-0.9,1.4c-0.4,0-0.6-0.3-0.6-0.9
				c0-0.9,0.4-1.5,0.9-1.5C47.4,18.2,47.6,18.5,47.6,19.1z"/>
			<path id="path4133" class="st4" d="M16.9,21.6l0.7-4.1l0.1,4.1h0.8l1.5-4.1l-0.6,4.1h1.2l0.9-5.4h-1.8l-1.1,3.3l-0.1-3.3h-1.7
				l-0.9,5.4C15.8,21.6,16.9,21.6,16.9,21.6z"/>
			<path id="path4131" class="st4" d="M34.3,21.6c0.3-1.9,0.4-3.4,1.2-3.1c0.1-0.7,0.3-1,0.4-1.3c0,0-0.1,0-0.2,0
				c-0.5,0-0.9,0.7-0.9,0.7l0.1-0.6h-1.1l-0.7,4.4h1.2V21.6z"/>
			<g id="use8523" transform="translate(847.0062,0)">
				<path id="path4149_1_" class="st4" d="M-805.6,17.1c-0.8,0-1.4,0.2-1.4,0.2l-0.2,1c0,0,0.5-0.2,1.2-0.2c0.4,0,0.7,0,0.7,0.4
					c0,0.2,0,0.3,0,0.3s-0.3,0-0.5,0c-1,0-2,0.4-2,1.7c0,1,0.7,1.2,1.1,1.2c0.8,0,1.1-0.5,1.2-0.5v0.4h1l0.4-3.1
					C-804.1,17.1-805.2,17.1-805.6,17.1z M-805.4,19.6c0,0.2-0.1,1.1-0.8,1.1c-0.4,0-0.4-0.3-0.4-0.4c0-0.3,0.2-0.7,1-0.7
					C-805.4,19.6-805.4,19.6-805.4,19.6z"/>
			</g>
			<g id="use8525" transform="translate(442.2857,0)">
				<path id="path4131_1_" class="st4" d="M-398.4,21.6c0.3-1.9,0.4-3.4,1.2-3.1c0.1-0.7,0.3-1,0.4-1.3c0,0-0.1,0-0.2,0
					c-0.5,0-0.9,0.7-0.9,0.7l0.1-0.6h-1.1l-0.7,4.4h1.2V21.6z"/>
			</g>
			<path id="text9407" class="st4" d="M49.3,20.9c0.1,0,0.1,0,0.2,0s0.1,0.1,0.1,0.1c0,0.1,0,0.1,0,0.2s0,0.1,0,0.2
				s-0.1,0.1-0.1,0.1c-0.1,0-0.1,0-0.2,0s-0.1,0-0.2,0S49,21.4,49,21.4c0-0.1,0-0.1,0-0.2s0-0.1,0-0.2s0.1-0.1,0.1-0.1
				C49.1,20.9,49.2,20.9,49.3,20.9 M49.3,20.9L49.3,20.9L49.1,21v0.1v0.1l0.1,0.1h0.1h0.1l0.1-0.1v-0.1V21L49.3,20.9
				C49.3,21,49.3,20.9,49.3,20.9 M49.1,21.4V21h0.1h0.1l0,0c0,0,0,0,0,0.1v0.1c0,0,0,0-0.1,0l0,0c0,0,0,0,0.1,0.1v0.1L49.1,21.4
				L49.1,21.4c0.1-0.1,0.1-0.2,0-0.2l0,0l0,0V21.4L49.1,21.4 M49.2,21.2L49.2,21.2C49.3,21.2,49.3,21.2,49.2,21.2L49.2,21.2
				L49.2,21.2L49.2,21.2C49.3,21.2,49.3,21.2,49.2,21.2L49.2,21.2L49.2,21.2"/>
		</g>
	</g>
</g>
</svg>
