<?xml version="1.0" encoding="utf-8"?>
<!-- Generator: Adobe Illustrator 20.1.0, SVG Export Plug-In . SVG Version: 6.00 Build 0)  -->
<svg version="1.1" id="Layer_1" xmlns="http://www.w3.org/2000/svg" xmlns:xlink="http://www.w3.org/1999/xlink" x="0px" y="0px"
	 viewBox="0 0 64 38" style="enable-background:new 0 0 64 38;" xml:space="preserve">
<style type="text/css">
	.st0{fill:#0057A0;}
	.st1{fill:#FAA61A;}
</style>
<g>
	<g>
		<polygon class="st0" points="24.7,25.8 26.9,12.9 30.4,12.9 28.2,25.8 		"/>
		<path class="st0" d="M40.9,13.2c-0.7-0.3-1.8-0.5-3.2-0.5c-3.5,0-5.9,1.8-5.9,4.3c0,1.9,1.7,2.9,3.1,3.5c1.4,0.6,1.8,1,1.8,1.6
			c0,0.9-1.1,1.3-2.1,1.3c-1.4,0-2.2-0.2-3.3-0.7l-0.5-0.2l-0.5,2.9c0.8,0.4,2.3,0.7,3.9,0.7c3.7,0,6.1-1.7,6.1-4.4
			c0-1.5-0.9-2.6-3-3.5c-1.2-0.6-2-1-2-1.6c0-0.5,0.6-1.1,2-1.1c1.2,0,2,0.2,2.6,0.5l0.3,0.1L40.9,13.2"/>
		<path class="st0" d="M50,12.9h-2.7c-0.8,0-1.5,0.2-1.8,1.1l-5.2,11.8H44c0,0,0.6-1.6,0.7-1.9c0.4,0,4,0,4.5,0
			c0.1,0.5,0.4,1.9,0.4,1.9h3.3L50,12.9 M45.6,21.2c0.3-0.7,1.4-3.6,1.4-3.6s0.3-0.7,0.5-1.2l0.2,1.1c0,0,0.7,3.1,0.8,3.7H45.6
			L45.6,21.2z"/>
		<path class="st0" d="M21.7,12.9l-3.4,8.8l-0.4-1.8c-0.6-2.1-2.6-4.3-4.9-5.4l3.2,11.3h3.7l5.5-12.9L21.7,12.9"/>
		<path class="st1" d="M15.1,12.9H9.4v0.3c4.4,1.1,7.3,3.7,8.6,6.8l-1.3-6C16.4,13.2,15.8,12.9,15.1,12.9"/>
	</g>
</g>
</svg>
